<?xml version="1.0" standalone="no"?>
<!DOCTYPE svg PUBLIC "-//W3C//DTD SVG 20010904//EN"
 "http://www.w3.org/TR/2001/REC-SVG-20010904/DTD/svg10.dtd">
<svg version="1.0" xmlns="http://www.w3.org/2000/svg"
 width="5001.000000pt" height="5001.000000pt" viewBox="0 0 5001.000000 5001.000000"
 preserveAspectRatio="xMidYMid meet">
 <text x="50%" y="40%" text-anchor="middle" font-size="500" fill="#000000">Hey !</text>
<text x="50%" y="55%" text-anchor="middle" font-size="500" fill="#000000">click me ...</text>
<g transform="translate(0.000000,5001.000000) scale(0.100000,-0.100000)"
fill="#000000" stroke="#000000">
<path d="M10010 38035 c-1004 -230 -1943 -611 -2810 -1138 -332 -202 -651
-429 -1048 -744 -34 -27 24 -81 248 -230 269 -179 390 -242 462 -243 32 0 52
12 145 87 508 409 1125 800 1726 1093 678 331 1297 546 2101 732 33 7 61 19
63 25 7 20 -87 102 -217 188 -199 132 -451 266 -499 264 -15 0 -91 -15 -171
-34z"/>
<path d="M24290 37933 c-216 -2 -813 -20 -990 -29 -115 -6 -410 -22 -540 -30
-190 -11 -731 -55 -990 -79 -1844 -177 -3750 -546 -5430 -1051 -2186 -658
-4164 -1571 -5865 -2709 -1838 -1229 -3220 -2648 -4140 -4250 -996 -1736
-1393 -3758 -1100 -5602 256 -1603 1002 -3162 2127 -4443 776 -883 1697 -1619
2818 -2250 572 -322 1088 -555 1894 -853 59 -22 60 -23 71 -73 23 -101 99
-194 193 -236 35 -16 68 -22 132 -22 99 -1 151 18 219 79 l41 38 228 -61 c559
-150 942 -233 1511 -327 118 -19 216 -37 218 -39 3 -2 -2 -15 -11 -28 -24 -37
-46 -136 -41 -190 7 -92 33 -148 99 -213 88 -86 184 -114 316 -92 l45 7 90
-146 c49 -81 134 -214 190 -298 55 -83 115 -181 133 -218 18 -36 48 -80 66
-96 19 -16 94 -110 167 -208 634 -857 1397 -1644 2269 -2343 586 -470 1309
-956 1928 -1297 l143 -79 66 -92 c36 -51 69 -93 74 -93 5 0 18 18 29 40 11 22
22 40 25 40 2 0 120 -58 262 -129 498 -249 1017 -472 1491 -641 l92 -33 32
-59 c65 -122 172 -182 313 -176 64 2 91 9 136 31 l56 29 119 -35 c302 -90 752
-199 1094 -266 199 -38 596 -104 713 -117 46 -6 57 -10 52 -22 -62 -162 16
-353 174 -426 37 -17 65 -21 141 -21 84 0 101 3 148 28 130 68 202 206 180
345 -9 54 -37 122 -65 154 -14 16 -13 20 11 49 15 18 38 53 51 79 l24 48 102
-19 c56 -10 104 -17 106 -15 2 2 -42 43 -97 91 -61 54 -103 99 -107 114 -11
49 -51 116 -90 152 -21 20 -92 79 -158 131 -130 103 -163 138 -303 324 -191
255 -381 562 -527 854 l-74 149 32 6 c61 13 149 68 188 117 128 163 81 403
-100 501 -111 61 -226 55 -362 -20 -8 -5 -67 161 -123 347 -145 481 -243 993
-286 1499 l-9 114 31 31 c51 51 89 143 89 217 1 106 -23 169 -93 245 l-41 45
6 146 c4 80 8 148 10 150 3 2 103 -3 223 -12 179 -13 228 -19 269 -37 59 -25
169 -30 230 -10 33 11 81 12 265 2 124 -6 554 -14 955 -17 708 -5 1109 2 1626
28 203 11 220 10 265 -7 79 -31 183 -25 269 13 63 28 86 33 225 43 85 6 298
24 473 41 175 16 365 29 423 29 l106 0 44 -46 c67 -68 140 -98 239 -98 118 0
195 40 282 147 21 25 29 27 95 28 40 0 91 2 113 4 22 3 155 12 295 21 140 9
322 21 403 28 l149 12 28 -57 c16 -31 51 -76 80 -102 183 -165 483 -72 541
168 6 28 13 51 14 53 1 1 115 16 253 32 239 29 663 84 727 96 l30 5 -3 -89
c-4 -81 -1 -96 24 -152 34 -77 112 -151 186 -176 162 -56 342 15 415 164 24
50 28 69 28 147 0 78 -4 97 -27 145 -15 30 -26 55 -25 56 1 1 83 16 182 33
463 83 1108 221 1562 333 l211 53 38 -32 c49 -43 108 -71 176 -83 152 -28 320
76 363 225 14 47 20 54 48 60 47 11 522 154 757 230 280 89 596 200 894 311
l249 94 46 -31 c133 -88 309 -71 419 39 49 49 71 88 91 166 l16 59 200 87
c534 232 1079 499 1506 737 l106 60 6 -63 c12 -121 94 -237 205 -287 71 -32
188 -30 263 5 204 94 260 354 113 527 -16 19 -48 47 -73 62 l-43 28 47 28 c26
15 128 79 228 140 99 62 182 113 184 113 2 0 19 -11 36 -24 85 -65 216 -86
318 -51 155 53 247 225 209 394 -12 54 -12 56 11 73 13 9 125 92 249 183 216
158 227 165 272 165 143 0 274 113 313 270 4 16 60 70 162 155 85 72 232 199
325 283 94 84 190 166 214 182 24 17 47 37 51 44 4 8 108 117 229 242 122 126
274 288 339 361 81 92 129 138 160 153 84 41 148 121 179 224 7 24 54 95 113
171 55 72 145 192 200 268 l100 139 94 1 c78 2 103 6 144 26 110 55 175 154
183 282 5 84 -6 132 -44 191 -13 21 -24 41 -24 46 0 4 37 73 83 153 45 80 102
184 127 232 25 48 48 86 51 84 4 -1 22 -22 41 -47 97 -129 260 -174 400 -112
158 70 239 264 178 426 -53 141 -206 236 -348 216 -37 -6 -43 -4 -38 9 2 9 45
115 95 237 222 545 379 1104 471 1673 11 68 21 126 23 128 2 2 12 -15 22 -38
29 -64 114 -135 192 -159 82 -25 124 -25 206 0 79 25 155 89 195 164 24 46 27
62 27 151 0 92 -2 104 -29 153 -111 199 -364 237 -533 79 l-48 -45 7 66 c15
134 21 804 9 988 -6 99 -14 193 -18 209 -5 29 -4 29 51 -23 80 -76 131 -97
236 -97 66 0 96 5 132 22 63 29 134 96 166 158 24 44 27 61 27 150 0 92 -2
104 -29 153 -107 192 -355 236 -520 92 -21 -19 -52 -59 -69 -89 -31 -54 -32
-55 -35 -26 -11 110 -84 480 -137 690 -347 1376 -1106 2646 -2290 3830 -441
441 -866 806 -1439 1237 -132 100 -299 232 -371 293 -1305 1119 -3126 2168
-5188 2989 -2554 1017 -5589 1743 -8397 2010 -486 46 -1201 97 -1570 111 -85
3 -193 8 -240 10 -116 7 -1107 25 -1200 23 -41 -2 -172 -4 -290 -5z m985 -763
c1443 -28 2748 -141 4110 -356 2503 -395 5359 -1246 7475 -2230 1667 -774
2917 -1566 3990 -2527 203 -182 649 -631 815 -822 747 -853 1244 -1725 1535
-2689 317 -1053 372 -2107 164 -3171 -280 -1430 -992 -2843 -2034 -4035 -233
-268 -699 -736 -1015 -1021 -1439 -1298 -3240 -2384 -5313 -3204 -2628 -1038
-5491 -1613 -8547 -1716 -391 -13 -1742 -7 -2065 10 -415 21 -882 52 -1020 66
-25 2 -124 12 -220 20 -96 9 -280 27 -408 41 -259 27 -301 25 -392 -21 -119
-60 -192 -174 -210 -330 -30 -254 -22 -818 16 -1200 134 -1357 661 -2677 1466
-3678 62 -77 74 -97 59 -97 -11 0 -137 29 -280 65 -2786 698 -5346 2420 -7028
4726 -310 425 -674 1024 -845 1388 -60 128 -120 191 -237 249 -87 44 -95 45
-461 97 -2095 295 -3987 1051 -5455 2180 -574 442 -1114 965 -1536 1490 -772
959 -1304 2005 -1589 3120 -96 374 -157 726 -197 1130 -22 230 -26 1042 -5
1285 49 567 136 1053 276 1542 315 1095 838 2102 1610 3098 877 1131 2051
2170 3496 3092 1581 1009 3488 1848 5515 2427 2313 660 4763 1023 7235 1070
571 11 566 11 1095 1z"/>
<path d="M12435 37344 c-1107 -330 -2251 -837 -3273 -1450 -1847 -1109 -3411
-2599 -4572 -4354 -310 -470 -342 -537 -290 -602 46 -59 149 -58 298 4 193 80
303 183 456 428 753 1205 1659 2234 2763 3137 523 429 1192 882 1820 1232 748
416 1520 743 2458 1041 300 96 545 306 547 470 1 97 -78 132 -207 94z"/>
<path d="M38636 36279 c-101 -16 -167 -49 -233 -114 -50 -50 -65 -72 -78 -120
-32 -110 2 -215 99 -302 69 -62 119 -85 351 -163 787 -266 1514 -626 2241
-1110 797 -531 1549 -1215 2146 -1953 355 -438 733 -1019 963 -1476 34 -69 75
-133 103 -163 80 -85 193 -128 339 -128 320 0 515 200 419 432 -35 86 -194
377 -319 587 -469 785 -1080 1533 -1767 2166 -1116 1028 -2470 1828 -3875
2288 -201 66 -271 76 -389 56z"/>
<path d="M46511 26109 c-194 -38 -312 -232 -257 -422 47 -163 235 -268 398
-223 106 29 179 91 223 188 36 79 37 185 2 262 -49 106 -137 174 -251 195 -33
6 -62 11 -65 10 -3 -1 -26 -5 -50 -10z"/>
<path d="M47325 25276 c-103 -26 -178 -88 -224 -185 -36 -77 -37 -202 -3 -272
37 -75 87 -125 159 -161 59 -29 77 -33 148 -33 66 0 90 5 135 26 61 29 137 99
146 135 4 14 -6 54 -24 101 -56 145 -153 368 -165 380 -18 19 -116 24 -172 9z"/>
<path d="M46517 24450 c-105 -18 -201 -90 -246 -185 -35 -73 -40 -182 -11
-257 28 -75 96 -150 168 -185 49 -24 69 -28 142 -28 71 0 94 4 142 27 200 94
254 355 108 521 -72 83 -192 125 -303 107z"/>
<path d="M47905 24080 c7 -45 35 -124 41 -118 5 5 -33 149 -41 156 -4 4 -4
-13 0 -38z"/>
<path d="M45628 23605 c-144 -54 -224 -177 -216 -333 6 -125 67 -219 180 -279
47 -25 63 -28 148 -28 111 0 167 22 236 90 68 68 89 124 89 235 0 81 -4 103
-24 145 -32 63 -93 124 -156 155 -61 30 -197 38 -257 15z"/>
<path d="M47265 23592 c-72 -36 -136 -99 -167 -167 -35 -76 -33 -200 5 -276
31 -64 93 -126 159 -160 64 -33 185 -38 259 -10 79 30 141 88 180 167 79 160
16 352 -143 439 -45 25 -67 30 -143 33 -83 3 -95 1 -150 -26z"/>
<path d="M46480 22781 c-98 -32 -184 -113 -220 -207 -28 -74 -25 -184 7 -256
30 -65 95 -133 162 -165 49 -24 67 -28 146 -28 93 1 134 14 206 68 37 27 86
97 105 149 23 63 20 172 -6 241 -26 69 -96 143 -166 178 -52 25 -185 36 -234
20z"/>
<path d="M48059 22742 c-56 -36 -95 -82 -128 -152 -21 -45 -25 -70 -25 -135 0
-86 20 -146 70 -212 30 -39 131 -109 142 -99 19 19 12 626 -7 626 -4 0 -27
-13 -52 -28z"/>
<path d="M45612 21928 c-74 -28 -153 -108 -182 -185 -29 -78 -26 -196 9 -266
29 -61 96 -128 158 -158 40 -20 63 -24 143 -24 85 0 101 3 148 28 65 34 123
93 154 155 34 69 37 187 8 265 -30 80 -106 156 -183 185 -76 29 -181 29 -255
0z"/>
<path d="M47295 21938 c-181 -67 -273 -279 -197 -452 27 -61 96 -132 157 -164
72 -37 188 -42 266 -13 108 41 184 134 209 253 28 137 -43 283 -172 353 -46
25 -66 30 -143 32 -49 1 -103 -2 -120 -9z"/>
<path d="M44785 21096 c-40 -17 -77 -43 -111 -78 -158 -164 -111 -421 96 -529
38 -20 60 -24 140 -24 84 0 101 3 147 28 66 34 116 84 150 150 24 45 28 63 28
142 0 76 -4 98 -26 145 -32 67 -87 123 -154 158 -75 38 -189 42 -270 8z"/>
<path d="M46456 21100 c-145 -57 -224 -180 -214 -334 8 -120 72 -217 181 -273
74 -38 189 -44 269 -13 123 46 209 168 210 297 0 86 -13 136 -54 198 -81 123
-256 178 -392 125z"/>
<path d="M47941 20940 c-34 -71 -47 -149 -34 -199 8 -31 12 -21 41 109 18 79
30 145 27 148 -2 3 -18 -23 -34 -58z"/>
<path d="M43983 20276 c-96 -31 -177 -108 -213 -202 -18 -48 -21 -74 -18 -135
7 -121 66 -217 169 -274 50 -28 61 -30 159 -30 98 0 109 2 159 30 68 38 125
102 152 174 29 78 24 194 -13 266 -32 62 -103 130 -166 158 -59 25 -171 32
-229 13z"/>
<path d="M45633 20272 c-86 -31 -144 -82 -191 -167 -24 -45 -27 -60 -27 -150
0 -92 2 -104 30 -154 107 -194 375 -232 531 -77 71 71 97 143 92 251 -4 94
-28 153 -89 214 -89 89 -233 123 -346 83z"/>
<path d="M47310 20277 c-91 -26 -173 -97 -212 -185 -33 -73 -31 -199 3 -273
33 -69 89 -127 155 -160 38 -18 69 -25 136 -27 76 -3 94 -1 141 21 l54 25 62
168 c76 205 77 212 56 255 -73 143 -243 219 -395 176z"/>
<path d="M43167 19449 c-54 -13 -93 -35 -144 -82 -138 -127 -141 -339 -8 -472
74 -73 142 -98 250 -93 130 8 223 67 282 180 24 46 27 65 28 143 0 79 -3 97
-28 147 -68 139 -227 213 -380 177z"/>
<path d="M44819 19444 c-289 -88 -322 -471 -54 -612 44 -24 62 -27 145 -27 84
0 101 3 147 28 143 75 214 237 169 388 -49 172 -239 275 -407 223z"/>
<path d="M46479 19445 c-289 -93 -324 -472 -56 -612 46 -25 63 -28 147 -28 85
0 101 3 153 29 147 75 215 245 162 405 -22 67 -100 152 -169 186 -67 33 -171
41 -237 20z"/>
<path d="M42308 18612 c-68 -25 -129 -72 -166 -127 -41 -62 -55 -113 -54 -197
1 -128 75 -239 195 -293 51 -24 68 -27 145 -23 65 2 99 9 134 26 65 32 125 94
156 160 23 48 27 71 27 142 0 73 -4 93 -28 142 -74 150 -256 226 -409 170z"/>
<path d="M43990 18621 c-98 -32 -184 -113 -220 -207 -18 -48 -21 -73 -18 -135
7 -121 66 -217 169 -274 50 -28 61 -30 159 -30 99 0 108 2 160 31 233 131 225
469 -13 591 -41 21 -69 27 -132 29 -44 2 -91 0 -105 -5z"/>
<path d="M45650 18621 c-88 -29 -174 -102 -213 -181 -32 -66 -36 -186 -8 -261
27 -72 84 -136 152 -174 50 -28 61 -30 159 -30 124 0 166 17 242 97 60 63 88
135 88 227 0 92 -22 151 -83 217 -71 78 -131 107 -232 110 -44 2 -91 0 -105
-5z"/>
<path d="M41485 17787 c-97 -33 -168 -96 -211 -190 -24 -53 -26 -68 -22 -145
5 -99 25 -147 89 -217 60 -65 144 -99 244 -100 68 0 89 4 137 28 74 36 134 96
166 165 22 47 27 71 27 137 0 133 -59 233 -175 294 -50 27 -76 34 -138 37 -48
2 -92 -1 -117 -9z"/>
<path d="M43155 17787 c-94 -31 -158 -85 -203 -170 -24 -47 -27 -62 -27 -152
0 -92 2 -104 30 -153 135 -245 473 -235 597 17 18 37 23 63 23 136 0 78 -4 97
-28 146 -32 67 -100 132 -165 162 -58 25 -171 32 -227 14z"/>
<path d="M44802 17782 c-142 -51 -231 -189 -220 -341 9 -122 75 -219 185 -273
58 -28 77 -33 143 -33 66 0 85 5 143 33 72 36 123 87 159 161 19 37 23 63 23
136 0 78 -4 97 -28 146 -32 67 -100 132 -165 162 -66 29 -172 33 -240 9z"/>
<path d="M46462 17781 c-130 -45 -222 -174 -222 -312 0 -55 10 -109 20 -109 7
0 261 343 301 408 l21 32 -34 0 c-18 -1 -57 -9 -86 -19z"/>
<path d="M39007 16960 c-98 -25 -182 -95 -225 -189 -21 -45 -26 -71 -27 -136
0 -71 4 -88 33 -147 59 -120 161 -183 297 -183 96 0 169 29 234 94 200 200 71
547 -211 566 -34 2 -80 0 -101 -5z"/>
<path d="M40660 16957 c-62 -17 -109 -48 -160 -103 -70 -76 -98 -174 -79 -278
13 -75 44 -129 104 -185 221 -204 574 -33 553 268 -9 125 -79 225 -193 277
-65 30 -163 39 -225 21z"/>
<path d="M42327 16956 c-97 -27 -189 -112 -222 -207 -20 -56 -20 -173 -1 -228
31 -84 97 -154 183 -194 37 -16 67 -22 128 -22 71 0 88 4 147 33 73 36 124 87
160 161 19 37 23 63 23 136 0 83 -2 95 -34 153 -19 34 -50 77 -70 94 -82 72
-212 103 -314 74z"/>
<path d="M43986 16954 c-94 -29 -169 -94 -210 -183 -30 -66 -30 -207 1 -273
30 -66 96 -133 162 -165 48 -24 68 -28 141 -28 73 0 93 4 141 28 64 31 126 93
160 159 33 64 38 185 10 259 -39 103 -121 176 -228 204 -70 18 -114 18 -177
-1z"/>
<path d="M45655 16957 c-102 -34 -169 -90 -217 -179 -20 -37 -23 -58 -23 -143
0 -85 3 -106 23 -142 12 -24 24 -43 26 -43 19 0 438 458 433 473 -10 32 -177
55 -242 34z"/>
<path d="M11607 16132 c-15 -6 -2 -27 85 -133 57 -69 139 -167 183 -218 l79
-93 9 33 c14 52 3 168 -21 221 -30 68 -106 141 -173 165 -63 24 -137 35 -162
25z"/>
<path d="M13243 16129 c-106 -20 -196 -89 -243 -184 -21 -42 -25 -64 -25 -145
0 -81 4 -103 25 -145 78 -159 277 -234 432 -163 266 122 270 495 8 611 -64 29
-137 38 -197 26z"/>
<path d="M36531 16129 c-102 -20 -182 -79 -232 -171 -32 -59 -34 -69 -34 -158
0 -90 2 -98 36 -160 111 -203 382 -235 539 -64 58 65 84 133 84 224 0 91 -26
159 -84 224 -78 85 -200 127 -309 105z"/>
<path d="M38194 16130 c-108 -22 -217 -114 -250 -213 -23 -67 -23 -168 0 -235
11 -32 36 -73 66 -106 187 -204 519 -109 568 164 6 30 8 65 6 79 -12 79 -17
99 -36 134 -64 127 -218 204 -354 177z"/>
<path d="M39854 16130 c-118 -24 -219 -114 -254 -227 -37 -121 -12 -238 72
-329 162 -175 445 -131 547 86 35 74 36 200 3 273 -65 144 -221 227 -368 197z"/>
<path d="M41510 16126 c-100 -20 -181 -83 -232 -179 -20 -36 -23 -57 -23 -147
0 -97 2 -109 29 -158 37 -66 92 -117 164 -150 66 -30 180 -34 250 -8 253 92
300 441 79 590 -85 56 -166 72 -267 52z"/>
<path d="M43182 16129 c-105 -20 -204 -105 -243 -208 -31 -83 -24 -205 16
-279 91 -166 290 -225 458 -134 57 31 97 74 134 145 25 46 28 63 28 147 0 89
-2 99 -34 158 -52 96 -128 151 -236 171 -65 12 -63 12 -123 0z"/>
<path d="M44853 16130 c-107 -22 -196 -90 -243 -185 -21 -42 -25 -64 -25 -145
0 -68 4 -103 16 -123 l15 -28 99 87 c155 135 375 338 375 346 0 11 -101 45
-150 51 -25 3 -64 1 -87 -3z"/>
<path d="M12390 15288 l-44 -10 119 -117 c213 -207 315 -295 327 -283 7 7 9
43 6 99 -5 102 -32 165 -95 224 -53 50 -84 67 -150 84 -64 17 -98 17 -163 3z"/>
<path d="M14062 15290 c-59 -12 -137 -57 -174 -99 -57 -65 -83 -136 -83 -226
0 -71 4 -89 33 -148 37 -74 88 -123 168 -159 73 -33 189 -31 266 6 72 34 134
96 166 165 36 79 37 194 0 272 -65 142 -223 221 -376 189z"/>
<path d="M34033 15290 c-97 -20 -187 -90 -230 -178 -24 -50 -28 -69 -28 -147
0 -73 4 -99 23 -136 36 -74 87 -125 159 -161 121 -59 264 -40 363 49 28 25 63
69 78 97 24 46 27 62 27 151 0 89 -3 105 -27 151 -68 130 -224 204 -365 174z"/>
<path d="M35679 15287 c-151 -43 -249 -169 -249 -322 0 -131 68 -238 188 -297
57 -28 76 -33 142 -33 134 1 251 76 305 197 24 53 27 70 23 146 -4 107 -29
163 -105 232 -80 74 -204 105 -304 77z"/>
<path d="M37353 15290 c-99 -21 -187 -93 -231 -189 -22 -45 -26 -71 -27 -136
0 -71 4 -88 33 -147 59 -119 161 -182 297 -182 97 0 170 29 235 94 65 65 94
138 94 235 0 65 -4 90 -26 136 -65 142 -223 221 -375 189z"/>
<path d="M38999 15287 c-61 -17 -131 -59 -165 -99 -83 -99 -104 -246 -52 -359
88 -191 316 -254 490 -136 138 94 184 278 108 427 -27 53 -98 120 -155 146
-63 29 -164 38 -226 21z"/>
<path d="M40660 15285 c-205 -58 -303 -278 -209 -472 29 -60 117 -137 181
-159 167 -58 342 15 420 175 19 37 23 63 23 136 0 73 -4 99 -23 136 -74 150
-237 227 -392 184z"/>
<path d="M42332 15286 c-101 -25 -193 -109 -227 -207 -21 -59 -21 -166 1 -231
24 -74 118 -167 194 -194 169 -58 342 14 422 175 18 38 23 62 23 136 0 74 -5
98 -23 136 -73 149 -234 225 -390 185z"/>
<path d="M43995 15286 c-142 -45 -245 -169 -245 -296 l0 -40 158 122 c231 178
261 202 261 209 1 8 -63 19 -104 18 -16 0 -48 -6 -70 -13z"/>
<path d="M13280 14464 c1 -8 226 -181 317 -242 l35 -24 -7 23 c-26 91 -99 175
-184 213 -58 26 -161 45 -161 30z"/>
<path d="M14881 14454 c-71 -19 -110 -44 -165 -105 -56 -63 -81 -131 -80 -224
2 -127 67 -231 182 -287 59 -30 76 -33 152 -33 71 0 94 4 141 26 168 79 241
288 157 452 -70 138 -236 212 -387 171z"/>
<path d="M24860 14456 c-101 -28 -175 -91 -218 -185 -22 -45 -26 -71 -27 -136
0 -71 4 -88 33 -147 37 -76 82 -120 162 -157 46 -22 69 -26 140 -26 73 0 94 5
141 28 249 122 253 476 6 597 -72 35 -167 45 -237 26z"/>
<path d="M26526 14454 c-151 -40 -257 -193 -243 -350 11 -116 86 -222 192
-274 74 -35 198 -35 275 1 80 37 125 81 162 157 29 59 33 76 32 148 0 103 -31
171 -109 243 -85 77 -199 105 -309 75z"/>
<path d="M28193 14455 c-149 -41 -246 -168 -244 -319 1 -121 49 -216 138 -275
222 -147 511 0 516 262 2 107 -22 168 -97 243 -89 88 -201 120 -313 89z"/>
<path d="M29851 14455 c-100 -28 -172 -91 -217 -190 -64 -140 -14 -320 113
-404 173 -115 397 -57 488 126 25 50 29 70 30 143 0 77 -3 92 -33 152 -70 142
-230 215 -381 173z"/>
<path d="M31519 14457 c-107 -30 -192 -107 -230 -206 -17 -45 -20 -72 -17
-136 6 -98 34 -161 103 -224 73 -67 124 -86 230 -86 79 1 97 4 148 30 67 33
130 97 160 163 18 38 22 65 22 137 -1 78 -4 97 -28 143 -74 143 -242 220 -388
179z"/>
<path d="M33189 14457 c-107 -30 -192 -107 -230 -206 -29 -78 -23 -195 13
-266 32 -62 103 -129 166 -158 67 -30 199 -30 264 0 63 29 134 97 166 158 37
72 42 188 13 266 -58 153 -240 249 -392 206z"/>
<path d="M34857 14459 c-181 -44 -292 -232 -243 -412 55 -201 276 -303 462
-212 187 92 243 345 111 507 -75 93 -220 144 -330 117z"/>
<path d="M36529 14460 c-98 -17 -193 -91 -239 -185 -34 -69 -36 -207 -3 -277
30 -66 96 -133 162 -165 47 -23 70 -27 141 -28 72 0 94 4 141 26 205 97 259
358 109 523 -79 86 -198 127 -311 106z"/>
<path d="M38171 14455 c-133 -37 -221 -139 -246 -286 -8 -42 10 -139 32 -184
70 -139 239 -214 384 -172 149 44 240 165 241 323 1 213 -208 375 -411 319z"/>
<path d="M39831 14454 c-69 -18 -108 -43 -160 -99 -63 -68 -84 -124 -85 -220
0 -62 5 -91 22 -129 71 -157 233 -236 395 -192 241 66 327 367 154 544 -56 58
-110 88 -181 101 -73 13 -78 13 -145 -5z"/>
<path d="M41499 14456 c-95 -25 -175 -90 -221 -179 -31 -61 -37 -187 -12 -258
25 -69 100 -151 169 -184 145 -71 333 -23 423 108 133 192 35 453 -193 512
-70 18 -104 18 -166 1z"/>
<path d="M15687 13615 c-170 -63 -265 -283 -190 -441 20 -40 26 -44 262 -141
l134 -55 43 17 c65 25 129 87 165 161 82 166 12 364 -156 445 -51 25 -72 29
-140 28 -44 0 -97 -7 -118 -14z"/>
<path d="M23998 13615 c-233 -85 -291 -393 -107 -559 71 -64 144 -89 239 -84
94 6 154 32 215 93 163 162 119 432 -87 535 -54 26 -71 30 -142 29 -45 0 -98
-7 -118 -14z"/>
<path d="M25669 13615 c-85 -31 -141 -83 -190 -175 -20 -38 -24 -59 -24 -135
0 -78 4 -97 28 -146 36 -75 107 -140 183 -169 77 -29 185 -25 259 11 70 33
139 106 165 176 64 166 -5 344 -162 423 -54 26 -71 30 -142 29 -45 0 -97 -6
-117 -14z"/>
<path d="M27305 13601 c-205 -97 -255 -358 -100 -529 82 -92 238 -127 357 -82
75 28 150 96 185 168 23 48 27 70 28 142 0 73 -4 93 -28 142 -35 71 -119 150
-183 172 -27 9 -80 16 -123 16 -63 0 -87 -5 -136 -29z"/>
<path d="M28980 13612 c-28 -11 -68 -40 -105 -77 -74 -74 -100 -137 -100 -241
1 -60 6 -82 33 -137 63 -127 173 -193 313 -185 132 8 231 74 285 192 36 80 41
150 14 237 -19 63 -30 81 -83 134 -44 43 -77 67 -111 78 -64 22 -186 21 -246
-1z"/>
<path d="M30623 13600 c-206 -104 -251 -367 -90 -533 89 -90 231 -122 352 -77
82 31 164 113 195 195 59 160 -13 339 -170 421 -24 12 -64 19 -130 22 -90 3
-98 2 -157 -28z"/>
<path d="M32293 13600 c-67 -34 -120 -86 -154 -152 -31 -60 -38 -186 -14 -257
56 -171 258 -265 429 -201 72 28 141 89 182 162 26 48 29 62 29 148 0 111 -19
162 -90 234 -68 70 -114 89 -225 94 -90 3 -98 2 -157 -28z"/>
<path d="M33987 13616 c-136 -50 -224 -186 -215 -331 3 -40 14 -90 25 -117 28
-62 96 -134 158 -166 44 -24 61 -27 145 -27 111 0 167 22 236 90 62 62 88 125
92 220 6 138 -53 246 -169 310 -46 25 -67 30 -144 32 -60 2 -103 -1 -128 -11z"/>
<path d="M35647 13616 c-140 -50 -225 -185 -215 -340 16 -240 277 -381 489
-264 119 65 175 169 167 312 -7 128 -66 219 -180 276 -53 26 -71 30 -142 30
-45 -1 -98 -7 -119 -14z"/>
<path d="M37302 13614 c-58 -22 -146 -104 -176 -167 -38 -78 -44 -158 -17
-247 19 -62 31 -82 79 -130 77 -77 147 -104 253 -98 134 8 230 73 288 197 34
74 36 190 3 264 -28 62 -99 137 -159 167 -61 31 -203 38 -271 14z"/>
<path d="M38966 13614 c-77 -28 -141 -88 -183 -174 -23 -46 -28 -68 -28 -135
0 -104 35 -185 107 -250 132 -119 348 -111 463 17 93 102 116 244 61 366 -35
77 -114 153 -182 176 -59 20 -184 20 -238 0z"/>
<path d="M40602 13600 c-72 -37 -125 -92 -160 -169 -34 -73 -35 -183 -4 -255
23 -52 78 -126 93 -126 5 0 131 59 280 132 l271 132 -6 43 c-9 65 -49 134
-110 190 -68 62 -124 83 -226 83 -66 0 -86 -4 -138 -30z"/>
<path d="M28229 12799 c-282 -42 -381 -392 -165 -582 38 -33 126 -69 185 -74
164 -15 319 105 351 270 41 219 -151 419 -371 386z"/>
<path d="M34882 12798 c-72 -11 -139 -47 -191 -103 -64 -70 -86 -124 -86 -220
0 -71 4 -88 33 -147 36 -73 86 -123 161 -160 37 -18 63 -23 131 -23 73 0 93 4
142 28 207 102 251 377 87 537 -74 72 -173 103 -277 88z"/>
<path d="M38207 12799 c-157 -24 -279 -161 -281 -318 -2 -163 98 -291 256
-331 51 -13 72 -9 229 51 64 25 81 36 108 74 44 61 62 119 63 195 0 203 -177
358 -375 329z"/>
<path d="M16527 12785 c-21 -7 -41 -16 -44 -18 -5 -5 418 -147 438 -147 21 0
6 25 -49 79 -71 72 -142 101 -240 101 -37 -1 -84 -7 -105 -15z"/>
<path d="M24839 12786 c-203 -72 -286 -303 -176 -487 111 -185 376 -213 525
-55 167 176 99 461 -129 541 -51 18 -171 19 -220 1z"/>
<path d="M26520 12791 c-87 -27 -174 -104 -213 -189 -17 -37 -22 -66 -22 -132
1 -77 4 -91 34 -148 39 -71 79 -110 154 -149 45 -24 64 -27 142 -27 79 0 97 3
143 27 165 86 233 272 158 435 -56 121 -170 193 -304 191 -37 0 -78 -4 -92 -8z"/>
<path d="M29814 12780 c-105 -41 -182 -138 -203 -253 -26 -144 51 -292 187
-355 48 -23 71 -27 142 -27 73 1 93 5 140 29 73 37 115 78 153 151 27 53 31
70 32 145 0 73 -4 93 -27 141 -34 68 -87 123 -153 157 -70 36 -197 41 -271 12z"/>
<path d="M31488 12785 c-148 -56 -240 -210 -216 -363 17 -105 88 -201 187
-249 49 -25 67 -28 146 -27 108 0 164 23 235 94 71 70 95 128 95 230 0 101
-20 153 -86 225 -67 72 -126 98 -234 102 -61 2 -102 -2 -127 -12z"/>
<path d="M33155 12785 c-22 -8 -62 -32 -89 -53 -109 -82 -155 -245 -106 -374
28 -75 96 -150 168 -185 49 -24 69 -28 142 -28 73 0 93 4 141 28 63 30 125 92
161 159 19 36 23 58 23 138 0 85 -3 101 -28 148 -34 65 -93 123 -155 154 -59
29 -195 36 -257 13z"/>
<path d="M36500 12791 c-87 -27 -174 -103 -212 -186 -32 -70 -32 -199 -1 -267
28 -61 104 -137 168 -168 75 -36 198 -35 277 2 69 32 129 92 164 165 22 45 28
70 28 132 1 67 -3 85 -32 143 -60 122 -167 189 -300 187 -37 0 -78 -4 -92 -8z"/>
<path d="M39809 12786 c-20 -7 -52 -22 -70 -34 -36 -22 -98 -82 -85 -82 8 0
298 120 305 126 11 10 -118 2 -150 -10z"/>
<path d="M25721 11970 c-106 -22 -194 -91 -240 -189 -35 -75 -37 -201 -4 -273
30 -66 96 -133 162 -165 49 -24 68 -28 146 -28 79 0 96 4 144 28 119 63 184
170 184 303 0 203 -194 364 -392 324z"/>
<path d="M27384 11970 c-68 -14 -138 -55 -188 -111 -147 -164 -92 -420 113
-521 37 -18 63 -23 136 -23 79 0 97 4 147 28 64 31 125 95 160 165 33 67 32
195 -1 270 -60 134 -227 221 -367 192z"/>
<path d="M29041 11970 c-71 -15 -127 -48 -180 -106 -61 -67 -86 -133 -85 -231
0 -238 260 -395 478 -289 66 32 119 89 155 165 37 80 36 191 -3 273 -65 136
-222 217 -365 188z"/>
<path d="M30694 11966 c-307 -76 -351 -491 -66 -624 48 -23 71 -27 142 -27 73
0 93 4 141 28 75 36 140 107 169 183 29 78 25 187 -10 260 -66 136 -232 216
-376 180z"/>
<path d="M32364 11966 c-99 -24 -177 -86 -226 -179 -19 -35 -23 -58 -23 -142
0 -86 3 -107 24 -149 31 -63 86 -118 153 -153 46 -24 65 -27 143 -28 79 0 97
3 147 28 72 35 140 110 168 185 29 75 24 184 -11 257 -64 137 -231 217 -375
181z"/>
<path d="M34022 11964 c-29 -7 -66 -21 -83 -29 -49 -26 -109 -93 -138 -154
-22 -47 -26 -70 -26 -141 0 -73 4 -93 28 -141 36 -75 107 -140 183 -168 156
-59 341 15 415 167 34 69 38 188 10 263 -58 155 -230 244 -389 203z"/>
<path d="M35690 11966 c-72 -16 -113 -38 -164 -90 -70 -69 -91 -124 -91 -236
0 -83 4 -101 27 -145 50 -96 31 -94 314 -30 137 31 261 58 276 62 34 7 43 42
36 147 -10 152 -115 266 -273 295 -32 6 -61 11 -64 10 -3 0 -31 -6 -61 -13z"/>
<path d="M37365 11970 c-88 -18 -175 -73 -209 -131 l-19 -32 29 7 c16 4 117
33 223 64 l195 56 -40 17 c-50 22 -128 30 -179 19z"/>
<path d="M28229 11139 c-65 -10 -129 -40 -177 -84 -54 -48 -123 -185 -94 -185
4 0 120 -7 257 -15 138 -8 282 -15 320 -16 l70 -2 -3 29 c-5 46 -46 128 -87
172 -66 74 -185 116 -286 101z"/>
<path d="M24815 11116 c-150 -62 -235 -237 -191 -391 32 -109 103 -187 205
-226 74 -28 193 -23 264 11 61 29 128 96 159 157 19 40 23 64 23 143 0 111
-21 167 -90 235 -64 64 -125 89 -225 93 -72 2 -94 -1 -145 -22z"/>
<path d="M26486 11115 c-73 -30 -147 -100 -178 -169 -35 -78 -33 -201 5 -278
35 -72 110 -140 185 -168 46 -18 72 -21 132 -17 41 2 87 9 101 15 l26 10 7
199 c8 239 12 272 35 267 9 -1 37 -5 64 -8 l47 -6 -14 29 c-24 45 -102 108
-162 131 -77 28 -172 27 -248 -5z"/>
<path d="M29814 11120 c-105 -42 -192 -154 -208 -268 l-6 -43 336 1 337 2 -7
45 c-14 101 -87 203 -181 251 -70 36 -197 41 -271 12z"/>
<path d="M31490 11124 c-96 -35 -166 -103 -201 -195 -31 -80 -30 -82 54 -75
39 3 187 13 327 22 140 9 257 18 259 20 1 1 -8 27 -22 56 -30 64 -85 121 -152
156 -65 33 -196 41 -265 16z"/>
<path d="M33160 11123 c-51 -17 -135 -76 -151 -104 -8 -16 -6 -19 12 -19 32 0
431 50 449 56 11 4 8 11 -15 30 -63 51 -203 69 -295 37z"/>
<path d="M20700 10301 c-37 -12 -101 -47 -135 -74 -27 -23 -28 -27 -17 -48 22
-41 401 -487 414 -488 17 -2 106 99 128 144 21 42 25 64 25 145 0 83 -3 101
-27 145 -36 70 -112 137 -181 164 -59 21 -156 27 -207 12z"/>
<path d="M25672 10292 c-276 -99 -297 -485 -34 -613 69 -34 188 -38 263 -10
148 56 239 218 209 369 -33 159 -151 261 -310 269 -56 3 -89 -1 -128 -15z"/>
<path d="M21523 9466 c-23 -7 -57 -23 -77 -35 -40 -25 -116 -107 -116 -126 0
-15 437 -445 451 -445 22 0 111 97 136 149 24 48 28 68 28 141 0 73 -4 93 -28
141 -32 67 -100 132 -165 162 -59 25 -171 32 -229 13z"/>
<path d="M23183 9466 c-96 -31 -178 -110 -214 -205 -29 -77 -23 -184 13 -256
36 -70 111 -137 184 -165 48 -18 73 -21 134 -18 91 6 154 33 215 94 204 204
70 547 -219 561 -42 2 -88 -3 -113 -11z"/>
<path d="M26502 9461 c-144 -54 -234 -195 -218 -344 13 -124 97 -233 214 -277
72 -27 183 -24 253 7 59 26 125 86 150 136 l20 39 -30 155 c-17 85 -31 163
-31 174 0 26 -42 64 -105 97 -69 35 -178 41 -253 13z"/>
<path d="M22344 8636 c-51 -16 -129 -69 -150 -102 -13 -19 -14 -27 -4 -39 13
-16 332 -278 438 -360 l64 -49 19 24 c50 65 64 111 64 210 0 78 -4 103 -23
141 -29 59 -103 132 -161 160 -57 28 -186 35 -247 15z"/>
<path d="M24020 8641 c-87 -27 -174 -104 -213 -189 -32 -68 -31 -197 2 -270
31 -70 123 -154 192 -177 71 -24 197 -17 257 14 61 31 114 82 144 138 123 226
-36 495 -290 492 -37 0 -78 -4 -92 -8z"/>
<path d="M25690 8641 c-90 -29 -174 -104 -213 -189 -17 -36 -22 -66 -22 -132
0 -73 4 -93 28 -142 36 -74 120 -151 188 -173 79 -27 198 -17 267 20 133 72
202 223 168 367 -24 106 -92 189 -185 231 -50 22 -186 33 -231 18z"/>
<path d="M27110 8296 c0 -26 40 -141 56 -161 10 -12 15 -14 12 -5 -57 175 -68
202 -68 166z"/>
<path d="M23210 7814 c-8 -3 -34 -12 -58 -21 l-42 -15 23 -18 c13 -11 125 -87
248 -170 214 -144 224 -150 230 -127 9 34 -7 121 -31 172 -30 63 -114 138
-183 163 -54 21 -148 28 -187 16z"/>
<path d="M24833 7802 c-136 -48 -217 -167 -218 -317 0 -102 31 -171 110 -244
68 -61 133 -85 232 -84 61 0 83 5 137 32 79 39 137 102 167 180 29 78 24 194
-13 266 -58 113 -158 176 -288 182 -55 3 -89 -1 -127 -15z"/>
<path d="M26513 7806 c-89 -29 -167 -99 -205 -184 -31 -70 -31 -199 1 -269 26
-59 112 -146 166 -169 138 -57 282 -28 381 78 65 69 87 126 88 223 1 72 -3 88
-32 147 -36 74 -87 124 -161 159 -57 27 -177 35 -238 15z"/>
<path d="M25689 6974 c-239 -73 -315 -358 -148 -549 17 -19 61 -49 97 -66 82
-39 175 -44 262 -15 77 27 170 120 195 196 23 67 23 168 1 229 -60 164 -243
256 -407 205z"/>
<path d="M27367 6980 c-98 -25 -182 -95 -225 -189 -36 -76 -37 -191 -3 -269
31 -70 122 -154 193 -178 61 -21 154 -23 215 -6 142 41 244 196 230 349 -8 76
-53 168 -106 215 -78 69 -208 102 -304 78z"/>
<path d="M26532 6144 c-82 -22 -154 -66 -136 -84 9 -9 515 -180 534 -180 33 0
-20 118 -79 177 -50 50 -107 79 -180 93 -66 12 -73 12 -139 -6z"/>
<path d="M28214 6150 c-108 -22 -217 -115 -250 -212 -25 -77 -21 -185 9 -251
42 -88 34 -84 240 -122 104 -19 198 -35 211 -35 28 0 100 60 132 112 27 43 56
143 51 176 -2 12 -50 70 -108 130 -57 59 -126 131 -152 160 -51 55 -57 57
-133 42z"/>
</g>
</svg>
