<?xml version="1.0" standalone="no"?>
<!DOCTYPE svg PUBLIC "-//W3C//DTD SVG 20010904//EN"
 "http://www.w3.org/TR/2001/REC-SVG-20010904/DTD/svg10.dtd">
<svg version="1.0" xmlns="http://www.w3.org/2000/svg"
 width="281.000000pt" height="250.000000pt" viewBox="0 0 281.000000 250.000000"
 preserveAspectRatio="xMidYMid meet">
<text x="50%" y="45%" text-anchor="middle" font-size="20" fill="#FFFFFF" transform="scaleX(-1,0,0)">... ƧƎI⅃ꟻ ƎMIT</text>
<g transform="translate(0.000000,250.000000) scale(0.100000,-0.100000)"
fill="#000000" stroke="none">
<path d="M1182 2143 c-18 -2 -30 -9 -26 -14 3 -6 -5 -7 -23 -4 -23 5 -25 4
-13 -5 12 -10 11 -11 -8 -7 -13 3 -49 -4 -80 -16 -43 -17 -57 -27 -57 -42 -1
-11 4 -23 9 -26 5 -4 -4 -14 -21 -22 -29 -15 -43 -50 -16 -40 7 3 11 9 8 13
-6 9 115 84 153 95 13 4 21 9 19 11 -3 3 -22 -2 -42 -10 -52 -22 -58 -19 -12
5 23 12 46 17 58 14 17 -6 6 -15 -58 -53 -43 -25 -80 -50 -81 -54 -2 -5 -9 -5
-14 -2 -6 4 -8 2 -5 -3 4 -6 -9 -23 -29 -38 -19 -15 -33 -29 -30 -32 3 -3 31
17 62 45 32 28 77 59 101 69 23 10 43 21 43 25 0 4 7 4 17 1 11 -5 14 -3 8 6
-6 10 -2 11 16 6 18 -5 20 -4 9 4 -11 8 -4 13 32 22 26 7 45 16 42 20 -2 4 10
0 27 -8 25 -13 39 -14 61 -5 15 5 28 7 28 2 0 -5 42 -7 93 -5 82 3 100 0 153
-22 32 -14 67 -26 76 -26 10 -1 14 -5 10 -9 -5 -5 -25 -1 -46 7 -20 9 -42 13
-48 9 -7 -5 -8 -2 -3 6 6 10 1 11 -21 6 -22 -5 -26 -4 -14 4 12 9 7 10 -20 6
-26 -5 -30 -4 -15 3 24 11 2 12 -35 2 -23 -7 -22 -8 14 -15 86 -17 213 -59
250 -82 25 -17 42 -22 48 -16 7 7 2 13 -13 17 -13 4 -35 16 -48 26 -13 10 -28
16 -34 12 -6 -3 -7 -1 -3 6 6 9 23 3 63 -19 30 -17 57 -29 61 -26 3 3 -42 28
-99 56 -57 28 -90 48 -74 44 58 -13 130 -44 160 -69 l30 -25 -23 -18 -23 -18
30 -28 c16 -16 35 -41 42 -57 6 -17 14 -28 16 -25 3 2 -1 15 -7 28 -11 20 -9
19 20 -7 18 -16 30 -24 26 -18 -5 9 -2 11 10 6 14 -5 13 -8 -7 -19 -13 -7 -27
-10 -31 -8 -5 3 -8 1 -8 -4 0 -5 -10 -14 -22 -21 -22 -11 -22 -11 4 -6 20 4
30 0 38 -15 6 -11 20 -25 32 -31 20 -11 19 -8 -5 21 -38 45 -25 54 81 55 111
2 148 -8 196 -53 22 -21 36 -30 33 -19 -10 27 2 20 23 -15 11 -18 20 -27 20
-19 0 23 46 -26 70 -73 11 -23 20 -34 20 -25 0 42 -129 177 -208 218 -38 20
-63 25 -126 25 l-78 1 -20 39 c-53 102 -249 219 -337 200 -19 -4 -22 -3 -12 4
11 8 3 12 -32 17 -25 4 -50 4 -55 1 -6 -3 -12 -2 -14 3 -3 9 -263 21 -316 14z
m45 -19 c-3 -3 -12 -4 -19 -1 -8 3 -5 6 6 6 11 1 17 -2 13 -5z m228 -4 c17 -4
-13 -5 -65 -2 -52 2 -97 6 -99 8 -8 7 134 2 164 -6z m-260 -10 c3 -6 -1 -7 -9
-4 -18 7 -21 14 -7 14 6 0 13 -4 16 -10z m368 3 c-7 -2 -19 -2 -25 0 -7 3 -2
5 12 5 14 0 19 -2 13 -5z m-538 -44 c-28 -19 -28 -20 -5 -14 24 6 24 5 6 -9
-25 -20 -35 -20 -32 0 3 18 33 44 50 44 6 0 -2 -9 -19 -21z m839 -95 c3 -8 2
-12 -4 -9 -6 3 -10 10 -10 16 0 14 7 11 14 -7z m69 -65 c2 -8 6 -20 11 -27 13
-22 -2 -26 -28 -8 -27 17 -51 54 -42 64 3 3 18 -5 34 -19 l27 -24 -21 25 c-33
40 -39 57 -10 29 15 -14 28 -32 29 -40z m-72 24 c11 -29 8 -29 -22 3 -21 23
-22 26 -5 23 10 -2 22 -14 27 -26z m217 -80 c-10 -2 -28 -2 -40 0 -13 2 -5 4
17 4 22 1 32 -1 23 -4z m92 -23 c22 -11 40 -23 40 -25 0 -3 -17 3 -37 13 -21
11 -45 22 -53 25 -10 4 -11 6 -2 6 7 1 31 -8 52 -19z"/>
<path d="M1248 2083 c7 -3 16 -2 19 1 4 3 -2 6 -13 5 -11 0 -14 -3 -6 -6z"/>
<path d="M1428 2083 c6 -2 18 -2 25 0 6 3 1 5 -13 5 -14 0 -19 -2 -12 -5z"/>
<path d="M899 2042 c-24 -16 -57 -42 -74 -59 -27 -27 -38 -31 -105 -36 -41 -3
-95 -13 -120 -21 l-45 -16 24 20 c25 22 21 26 -10 10 -10 -6 -19 -17 -19 -25
0 -8 -5 -15 -11 -15 -5 0 -7 5 -4 10 3 6 4 10 1 10 -14 0 -87 -110 -80 -121 4
-7 3 -9 -3 -6 -6 4 -14 -1 -18 -11 -12 -30 -15 -156 -4 -172 8 -11 9 -7 4 17
-4 18 -3 39 2 47 5 9 9 -10 10 -50 2 -37 -1 -64 -7 -64 -6 0 -28 -18 -50 -40
-27 -27 -38 -45 -33 -56 4 -12 3 -15 -5 -10 -7 4 -12 3 -12 -2 0 -21 15 -20
46 3 45 34 51 31 18 -7 -15 -18 -33 -46 -41 -63 -11 -23 -13 -24 -9 -7 2 13 2
30 -1 38 -8 21 -26 17 -20 -6 3 -10 0 -21 -5 -22 -11 -4 -12 -28 -4 -123 7
-83 17 -129 26 -115 4 7 10 -6 13 -28 27 -165 152 -264 316 -248 35 3 69 10
75 16 16 16 30 12 90 -24 31 -19 87 -42 124 -52 37 -9 79 -23 94 -31 15 -7 33
-13 40 -12 7 0 4 4 -7 9 -17 7 -16 9 10 8 17 0 53 -3 80 -8 l50 -7 -60 -3
c-38 -2 -49 -5 -30 -7 41 -7 205 19 198 30 -3 5 5 6 18 2 19 -5 21 -4 9 5 -12
9 -9 10 13 5 24 -5 35 0 66 32 20 21 46 51 58 68 l21 30 39 -19 c25 -13 68
-21 124 -24 77 -4 90 -2 137 22 29 15 50 31 47 36 -7 11 28 0 77 -26 46 -24
205 -21 262 5 91 40 168 137 188 237 7 33 19 63 26 68 19 11 52 85 52 116 0
45 -37 111 -70 123 -29 11 -29 12 -25 72 3 51 3 53 -3 15 -9 -55 -18 -71 -37
-63 -10 3 -15 20 -15 54 0 61 -23 131 -55 165 -14 15 -25 24 -25 20 0 -4 -19
6 -43 22 -47 32 -102 62 -114 62 -4 0 -1 -5 7 -10 12 -8 12 -10 -5 -10 -11 -1
7 -10 40 -21 38 -12 78 -35 109 -62 44 -38 49 -48 53 -92 3 -30 -3 -79 -15
-122 -18 -70 -18 -72 0 -56 17 15 18 15 18 0 0 -21 3 -21 42 -1 20 10 28 11
22 3 -5 -9 -2 -10 10 -6 9 4 15 3 11 -2 -3 -6 8 -17 24 -27 44 -26 53 -53 31
-101 -18 -41 -45 -61 -54 -40 -3 7 -3 -1 1 -18 5 -28 4 -29 -9 -11 -19 25 -26
13 -34 -60 -4 -33 -15 -75 -25 -96 -22 -43 -89 -100 -150 -127 -42 -19 -49
-19 -113 -6 -37 8 -93 26 -123 40 -61 28 -92 33 -53 9 25 -15 25 -15 2 -10
-13 2 -21 2 -18 -1 8 -9 -43 -50 -89 -73 -32 -15 -48 -17 -79 -10 -45 10 -122
61 -119 79 2 6 -3 11 -11 11 -8 0 -17 6 -19 13 -3 6 -6 0 -6 -14 -1 -36 -9
-41 -37 -22 -27 18 -32 8 -8 -18 15 -16 13 -19 -26 -44 -58 -37 -160 -74 -250
-91 -88 -17 -202 -5 -259 28 -23 13 -37 16 -45 9 -14 -12 -102 27 -99 44 3 20
22 15 56 -15 20 -17 38 -26 42 -21 3 6 -7 17 -23 25 -39 20 -45 40 -20 62 11
11 24 28 30 39 7 15 3 14 -15 -6 -13 -14 -31 -25 -40 -23 -20 3 -22 -16 -4
-35 6 -7 -5 -5 -26 5 -29 14 -37 23 -33 37 4 17 2 17 -17 4 -84 -54 -119 -69
-145 -63 -20 5 -23 4 -12 -4 11 -7 6 -9 -22 -7 -20 1 -34 6 -30 11 3 5 -2 6
-12 3 -11 -5 -15 -3 -10 5 5 8 2 9 -9 5 -9 -3 -19 -1 -23 5 -5 7 -2 8 7 3 11
-7 11 -5 -1 10 -14 17 -13 18 5 12 15 -5 14 -2 -5 11 -14 9 -42 32 -62 51 -52
46 -48 30 8 -29 26 -28 41 -50 35 -50 -7 0 -9 -5 -5 -12 5 -7 3 -8 -5 -4 -7 5
-10 10 -7 13 3 4 -10 23 -29 45 -19 21 -35 41 -36 46 0 4 -3 18 -5 32 -8 43
-8 54 0 78 4 13 3 22 -3 22 -5 0 -12 -8 -14 -17 -3 -10 -3 1 -1 25 2 23 11 54
21 70 l17 27 -21 -19 c-22 -18 -22 -18 -32 15 -5 19 -10 26 -10 17 -1 -9 4
-29 10 -45 5 -15 7 -24 3 -20 -5 4 -14 -3 -22 -15 -10 -17 -12 -18 -6 -3 4 11
7 34 6 50 -5 125 90 277 147 233 14 -11 14 -11 3 4 -11 14 -10 17 5 21 10 2 6
4 -8 3 -20 -2 -25 2 -21 13 4 10 1 12 -9 6 -8 -5 -6 1 4 13 16 17 24 19 44 11
14 -5 28 -7 31 -5 8 9 -7 36 -20 35 -10 0 -10 -2 0 -6 6 -2 12 -9 12 -14 0 -5
-12 -3 -27 4 -16 8 -34 12 -40 10 -7 -3 -13 0 -13 7 0 6 4 9 9 6 10 -7 21 17
21 46 0 17 -3 18 -15 8 -9 -8 -15 -9 -15 -2 0 6 4 14 10 17 6 3 10 24 10 46 0
35 7 47 50 90 27 27 39 44 27 37 -12 -7 -26 -13 -32 -13 -5 -1 -9 -6 -7 -13 1
-7 -3 -12 -8 -12 -6 0 -15 -12 -21 -26 -14 -38 -24 -22 -10 17 6 17 8 36 4 42
-4 6 -1 7 7 2 10 -6 12 -4 7 9 -4 9 -3 15 2 12 4 -3 18 6 31 19 29 30 82 49
118 41 20 -5 23 -4 12 4 -13 8 -12 10 3 10 10 0 38 -5 62 -11 36 -9 44 -15 49
-41 3 -17 3 -35 0 -40 -4 -6 -1 -9 7 -6 16 5 21 50 7 59 -12 7 -2 29 12 29 5
0 6 -8 3 -17 -6 -16 -5 -17 12 -3 19 15 19 15 1 -15 l-19 -30 21 19 c21 18 23
18 41 2 19 -17 20 -17 23 7 3 25 4 25 43 12 36 -13 38 -12 20 1 -11 8 -32 18
-47 21 l-26 5 29 29 c17 16 27 33 24 38 -3 6 5 17 17 25 18 13 35 46 22 46 -2
0 -33 -25 -69 -55 -61 -52 -85 -65 -85 -47 0 14 64 70 110 96 25 14 40 26 34
26 -5 0 -30 -13 -55 -28z m41 -26 c0 -2 -8 -10 -17 -17 -16 -13 -17 -12 -4 4
13 16 21 21 21 13z m-40 -39 c0 -2 -10 -12 -22 -23 l-23 -19 19 23 c18 21 26
27 26 19z m-123 -64 c3 -7 -3 -9 -17 -6 -29 8 -37 25 -9 21 12 -1 24 -8 26
-15z m93 -23 c0 -5 -2 -10 -4 -10 -3 0 -8 5 -11 10 -3 6 -1 10 4 10 6 0 11 -4
11 -10z m-423 -132 c-3 -8 -6 -5 -6 6 -1 11 2 17 5 13 3 -3 4 -12 1 -19z
m1860 -235 c-3 -10 -5 -4 -5 12 0 17 2 24 5 18 2 -7 2 -21 0 -30z m-1874 -4
c-18 -16 -33 -34 -33 -38 0 -5 -7 -12 -16 -15 -10 -4 -13 -2 -7 7 4 6 8 14 8
17 1 13 22 38 40 48 37 21 40 12 8 -19z m17 -19 c0 -5 -7 -10 -16 -10 -8 0
-12 5 -9 10 3 6 10 10 16 10 5 0 9 -4 9 -10z m1883 -35 c-3 -9 -8 -14 -10 -11
-3 3 -2 9 2 15 9 16 15 13 8 -4z m34 -247 c-3 -8 -6 -5 -6 6 -1 11 2 17 5 13
3 -3 4 -12 1 -19z m29 -45 c-8 -45 -56 -138 -72 -138 -6 0 -26 -15 -45 -32
-18 -18 -37 -33 -41 -33 -5 0 -6 -4 -3 -10 3 -6 -1 -7 -9 -4 -12 5 -7 13 21
33 21 15 44 35 52 44 7 9 17 15 20 12 15 -8 64 111 56 136 -5 18 -4 21 4 9 9
-12 11 -11 11 9 0 13 3 22 6 18 3 -3 3 -23 0 -44z m-39 5 c-3 -8 -6 -5 -6 6
-1 11 2 17 5 13 3 -3 4 -12 1 -19z m-370 -235 c-10 -10 -77 19 -77 33 0 11 8
10 41 -6 23 -12 39 -24 36 -27z m-1222 17 c-3 -5 -1 -18 5 -29 12 -24 -8 -32
-85 -36 l-51 -2 55 29 c31 16 60 34 66 39 12 12 18 12 10 -1z m880 -48 c-7 -7
-74 30 -79 43 -3 8 14 2 39 -13 23 -15 41 -29 40 -30z m550 22 c-17 -7 -39
-13 -50 -13 -11 1 -3 6 18 13 21 6 35 15 30 19 -4 5 1 5 12 1 17 -7 16 -9 -10
-20z m-116 0 c10 -9 -35 -3 -49 6 -11 8 -7 9 15 4 17 -4 32 -8 34 -10z m-616
-45 c-6 -6 -9 -17 -7 -24 3 -7 -8 -22 -24 -34 -45 -31 -51 -25 -12 10 21 18
25 25 10 15 -67 -43 -88 -49 -165 -53 l-80 -3 77 20 c42 10 105 32 140 49 73
34 76 35 61 20z"/>
<path d="M730 919 c-22 -18 -22 -19 -3 -10 12 6 25 16 28 21 9 15 3 12 -25
-11z"/>
<path d="M718 1983 c6 -2 18 -2 25 0 6 3 1 5 -13 5 -14 0 -19 -2 -12 -5z"/>
<path d="M708 1893 c7 -3 16 -2 19 1 4 3 -2 6 -13 5 -11 0 -14 -3 -6 -6z"/>
<path d="M604 1854 c-18 -14 -18 -14 6 -3 31 14 36 19 24 19 -6 0 -19 -7 -30
-16z"/>
<path d="M539 1843 c-13 -16 -12 -17 4 -4 9 7 17 15 17 17 0 8 -8 3 -21 -13z"/>
<path d="M1965 1809 l-30 -7 33 -1 c36 -1 40 -11 15 -37 -13 -13 -14 -16 -3
-12 8 2 19 14 25 26 6 13 20 22 40 24 27 3 26 4 -10 8 -22 3 -54 2 -70 -1z"/>
<path d="M365 1429 c-4 -6 -5 -12 -2 -15 2 -3 7 2 10 11 7 17 1 20 -8 4z"/>
<path d="M311 1234 c0 -11 3 -14 6 -6 3 7 2 16 -1 19 -3 4 -6 -2 -5 -13z"/>
<path d="M439 1213 c-13 -16 -12 -17 4 -4 9 7 17 15 17 17 0 8 -8 3 -21 -13z"/>
<path d="M341 1044 c0 -11 3 -14 6 -6 3 7 2 16 -1 19 -3 4 -6 -2 -5 -13z"/>
<path d="M547 939 c7 -7 15 -10 18 -7 3 3 -2 9 -12 12 -14 6 -15 5 -6 -5z"/>
<path d="M2099 800 c-11 -17 -26 -22 -65 -24 -61 -2 -104 -27 -104 -61 0 -15
-7 -26 -20 -30 -29 -9 -34 -47 -15 -103 13 -40 23 -53 48 -63 18 -7 48 -30 67
-51 35 -37 37 -38 85 -31 37 5 57 14 77 35 14 15 34 28 45 27 13 -1 12 -3 -7
-10 -22 -8 -22 -8 5 -3 17 3 50 8 75 11 55 6 70 17 70 53 0 15 7 33 15 40 20
16 18 48 -4 85 -14 24 -24 29 -47 27 -22 -2 -26 0 -14 8 12 8 12 10 -6 10 -11
0 -33 14 -50 31 -33 35 -65 54 -110 63 -25 6 -34 3 -45 -14z m50 -11 c-8 -5 2
-11 29 -19 49 -13 85 -55 61 -71 -10 -6 -10 -9 -1 -9 6 0 12 -10 12 -22 0 -20
1 -20 18 -5 17 16 20 15 40 -3 22 -20 32 -67 12 -55 -6 4 -10 -6 -10 -24 0
-59 -53 -78 -123 -42 -37 19 -54 13 -44 -14 3 -7 -3 -21 -13 -30 -11 -10 -17
-21 -15 -25 3 -4 -11 -4 -31 0 -20 5 -42 6 -49 4 -14 -6 -49 25 -40 35 4 3 12
-2 19 -12 7 -9 17 -17 22 -17 4 0 3 5 -4 12 -7 7 -12 22 -12 34 0 29 -20 42
-34 22 -7 -10 -18 -12 -31 -7 -20 8 -20 8 0 9 15 1 12 4 -12 15 -35 15 -42 39
-23 76 12 22 32 24 59 7 14 -9 23 -8 42 5 13 10 19 17 13 17 -16 0 -54 39 -54
55 0 20 37 37 61 30 14 -5 19 -12 15 -23 -5 -15 -4 -15 8 1 7 9 18 17 25 17 6
0 11 8 11 17 0 9 3 13 7 10 9 -9 34 13 27 24 -3 5 2 6 11 2 13 -4 14 -8 4 -14z
m-183 -55 c-3 -9 -6 -25 -6 -37 -1 -20 -2 -20 -11 -4 -11 20 -3 57 13 57 5 0
7 -7 4 -16z m392 -75 c1 -18 -1 -30 -5 -26 -9 10 -13 68 -4 63 4 -3 8 -19 9
-37z m-440 1 c-14 -22 -24 -19 -15 5 4 8 11 15 17 15 6 0 6 -7 -2 -20z m458
-46 c-4 -9 -9 -15 -11 -12 -3 3 -3 13 1 22 4 9 9 15 11 12 3 -3 3 -13 -1 -22z
m-55 -67 c-10 -9 -11 -8 -5 6 3 10 9 15 12 12 3 -3 0 -11 -7 -18z m26 -22 c-4
-9 -18 -15 -34 -14 -26 0 -26 1 -7 9 12 5 25 14 29 20 10 16 19 4 12 -15z
m-148 -4 c10 -7 7 -9 -12 -8 -15 1 -27 5 -27 10 0 10 22 9 39 -2z m-33 -37
c-3 -9 -6 -18 -6 -20 0 -2 -7 -4 -15 -4 -13 0 -13 3 -3 20 15 24 33 27 24 4z"/>
<path d="M2004 736 c-10 -8 -17 -17 -14 -19 3 -3 16 3 29 14 27 22 15 26 -15
5z"/>
<path d="M2186 358 c-14 -19 -26 -44 -26 -54 0 -30 26 -60 62 -74 18 -7 47
-19 65 -26 42 -19 59 -18 92 7 24 18 29 28 30 72 1 55 -19 90 -47 80 -10 -4
-13 -2 -8 5 4 8 0 12 -11 12 -10 1 -43 3 -74 6 -55 6 -57 5 -83 -28z m111 10
c7 -1 10 -5 7 -10 -3 -4 4 -8 14 -8 11 0 29 -8 41 -17 19 -16 21 -23 14 -58
-8 -36 -12 -40 -41 -43 -31 -3 -32 -2 -26 22 3 15 2 26 -4 26 -12 0 -34 -25
-27 -32 3 -2 -10 -3 -28 0 -38 5 -57 26 -57 64 0 22 5 28 21 28 11 0 29 -5 40
-10 13 -8 19 -7 19 0 0 6 5 8 10 5 6 -3 10 -1 10 4 0 6 -1 11 -2 11 -2 0 -21
7 -43 15 l-40 16 40 -6 c22 -3 45 -6 52 -7z m-60 -14 c-3 -3 -12 -4 -19 -1 -8
3 -5 6 6 6 11 1 17 -2 13 -5z m159 -21 c-7 -7 -26 7 -26 19 0 6 6 6 15 -2 9
-7 13 -15 11 -17z"/>
</g>
</svg>
